<?xml version="1.0" encoding="UTF-8" standalone="no"?>
<!DOCTYPE svg PUBLIC "-//W3C//DTD SVG 1.1//EN" "http://www.w3.org/Graphics/SVG/1.1/DTD/svg11.dtd">
<svg width="100%" height="100%" viewBox="0 0 1024 1024" version="1.1" xmlns="http://www.w3.org/2000/svg" xmlns:xlink="http://www.w3.org/1999/xlink" xml:space="preserve" xmlns:serif="http://www.serif.com/" style="fill-rule:evenodd;clip-rule:evenodd;stroke-linejoin:round;stroke-miterlimit:2;">
    <g transform="matrix(1.3391,0,0,1.78484,-251.635,-217.239)">
        <g id="Layer1">
            <rect x="-12.717" y="-21.258" width="1168.86" height="1056.95" style="fill:rgb(24,24,37);"/>
        </g>
    </g>
    <g transform="matrix(1.4879,0,0,1.4879,-269.992,-228.842)">
        <path d="M329.262,489.057C329.22,488.595 329.177,488.133 329.621,487.192C330.386,486.136 330.886,485.569 330.913,484.981C331.655,468.697 337.631,454.381 347.315,441.492C349.996,437.923 352.496,433.996 355.89,431.229C363.96,424.65 372.464,418.598 380.898,412.478C384.369,409.959 386.295,407.168 386.107,402.528C385.731,393.278 385.977,384.002 386.005,374.736C386.018,370.476 386.149,366.217 386.178,361.957C386.199,358.798 386.035,355.635 386.14,352.48C386.349,346.258 386.81,340.043 386.939,333.82C387.086,326.735 386.819,319.636 387.149,312.563C387.207,311.324 389.315,309.156 390.49,309.147C415.807,308.949 441.128,308.951 466.446,309.148C467.642,309.157 469.686,311.223 469.845,312.514C470.307,316.289 470.001,320.157 470.021,323.988C470.061,331.416 470.145,338.843 470.162,346.271C470.189,357.759 470.137,369.247 470.195,380.735C470.224,386.471 471.13,392.3 470.39,397.922C469.064,408.004 471.844,412.381 480.754,417.266C492.022,423.444 502.535,430.992 513.447,437.832C514.72,438.63 516.459,438.683 517.982,439.081C518.887,438.488 519.791,437.895 521.326,437.105C523.957,434.955 526.238,433.212 527.909,431.007C532.794,424.56 537.355,417.867 542.192,411.382C550.302,400.508 558.555,389.741 566.699,378.893C583.018,357.154 599.388,335.453 615.513,313.572C617.979,310.226 620.501,308.89 624.593,308.911C653.393,309.053 682.195,308.98 710.996,309.006C712.881,309.008 714.767,309.253 717.696,309.459C716.188,312.002 715.409,313.78 714.227,315.232C707.219,323.843 699.939,332.24 693.094,340.978C685.38,350.826 678.147,361.05 670.485,370.941C662.672,381.026 654.624,390.93 646.621,400.868C638.098,411.451 629.454,421.938 621.011,432.585C619.881,434.01 619.621,436.126 618.958,437.922C618.958,437.922 618.991,437.988 618.617,438.024C615.964,441.175 613.687,444.291 611.409,447.407C611.289,447.278 611.168,447.149 610.872,447.134C608.044,450.024 605.235,452.671 602.771,455.607C598.358,460.865 594.007,466.189 589.914,471.696C587.154,475.409 584.883,479.484 582.393,483.397C582.393,483.397 582.061,483.075 581.867,483.159C580.437,485.133 579.2,487.023 577.963,488.913C577.179,490.173 576.396,491.432 575.348,493.115C624.495,554.714 673.75,616.447 723.738,679.1C721.064,679.254 719.506,679.42 717.949,679.423C685.453,679.496 652.957,679.511 620.461,679.677C617.386,679.692 615.782,678.469 614.045,676.093C582.922,633.499 551.69,590.986 520.474,548.46C520.183,548.064 519.801,547.734 519.079,546.968C515.765,549.278 512.506,551.788 509.023,553.935C498.417,560.472 487.804,567.006 477.013,573.228C474.219,574.839 473,576.341 473.02,579.705C473.201,610.368 473.171,641.031 473.203,671.695C473.205,674.161 473.203,676.626 473.203,679.317L383.884,679.317C383.884,672.114 383.868,665.157 383.887,658.201C383.955,632.537 383.961,606.873 384.203,581.211C384.233,578.056 382.858,576.967 380.426,575.704C352.637,561.264 335.467,538.896 330.341,507.15C330.136,500.682 329.699,494.869 329.262,489.057M424.622,451.892C434.058,451.469 442.843,454.376 450.989,458.461C461.067,463.515 470.526,469.792 480.382,475.31C481.872,476.144 484.893,476.601 485.797,475.745C492.188,469.694 498.212,463.254 505.343,455.92C493.625,448.628 483.019,441.098 471.604,435.111C444.37,420.829 416.712,416.125 387.848,431.858C362.831,445.494 346.975,477.025 352.41,505.192C359.704,542.995 397.273,569.341 435.533,563.211C459.871,559.311 480.648,547.295 499.993,532.897C530.96,509.85 556.272,481.06 580.318,451.157C610.258,413.924 639.933,376.478 669.711,339.114C672.193,335.998 674.582,332.807 677.458,329.076C661.509,329.076 646.68,328.961 631.859,329.219C629.968,329.252 627.508,330.788 626.326,332.381C600.449,367.255 574.855,402.339 548.91,437.162C530.17,462.314 509.988,486.271 485.442,506.038C470.746,517.873 455.019,528.204 436.24,532.714C426.891,534.959 417.625,534.74 408.86,530.733C390.366,522.279 381.808,505.259 385.37,484.845C388.503,466.893 403.935,453.63 424.622,451.892M563.883,568.651C584.72,596.865 605.508,625.117 626.512,653.206C627.828,654.965 630.82,656.333 633.07,656.39C646.38,656.732 659.702,656.641 673.02,656.663C673.88,656.665 674.741,656.397 675.973,656.194C636.994,607.17 598.348,558.565 558.864,508.906C551.49,517.587 544.929,525.311 537.789,533.717C545.386,543.913 554.401,556.01 563.883,568.651M442.725,401.704C445.158,402.085 447.59,402.467 450.341,402.898L450.341,329.407L406.44,329.407L406.44,401.82C418.494,399.354 430.192,399.138 442.725,401.704M406.708,626.5L406.708,656.391L450.024,656.391L450.024,585.025L406.708,585.025L406.708,626.5M453.708,501.214C457.791,498.528 461.873,495.841 466.383,492.874C454.737,484.141 442.908,477.855 429.626,474.668C422.36,472.924 413.858,476.599 409.949,482.548C405.971,488.602 405.832,498.372 409.644,503.909C413.614,509.676 422.241,513.333 429.567,511.036C437.601,508.516 445.256,504.788 453.708,501.214Z" style="fill:rgb(245,224,220);fill-rule:nonzero;"/>
    </g>
</svg>
